Coordinates
version=1
nRows=6
nColumns=63
inDegrees=yes

Units are S.I. units (second, meters, Newtons, ...)
If the header above contains a line with 'inDegrees', this indicates whether rotational values are in degrees (yes) or radians (no).

endheader
time	pelvis_tilt	pelvis_list	pelvis_rotation	pelvis_tx	pelvis_ty	pelvis_tz	hip_flexion_r	hip_adduction_r	hip_rotation_r	knee_angle_r	knee_angle_r_beta	ankle_angle_r	subtalar_angle_r	mtp_angle_r	hip_flexion_l	hip_adduction_l	hip_rotation_l	knee_angle_l	knee_angle_l_beta	ankle_angle_l	subtalar_angle_l	mtp_angle_l	L5_S1_Flex_Ext	L5_S1_Lat_Bending	L5_S1_axial_rotation	L4_L5_Flex_Ext	L4_L5_Lat_Bending	L4_L5_axial_rotation	L3_L4_Flex_Ext	L3_L4_Lat_Bending	L3_L4_axial_rotation	L2_L3_Flex_Ext	L2_L3_Lat_Bending	L2_L3_axial_rotation	L1_L2_Flex_Ext	L1_L2_Lat_Bending	L1_L2_axial_rotation	L1_T12_Flex_Ext	L1_T12_Lat_Bending	L1_T12_axial_rotation	Abs_r3	Abs_r2	Abs_r1	Abs_t1	Abs_t2	neck_flexion	neck_bending	neck_rotation	arm_flex_r	arm_add_r	arm_rot_r	elbow_flex_r	pro_sup_r	wrist_flex_r	wrist_dev_r	arm_flex_l	arm_add_l	arm_rot_l	elbow_flex_l	pro_sup_l	wrist_flex_l	wrist_dev_l
      2.94915254	     -5.16299540	      0.19536952	     62.83242724	      0.30801780	      0.96951311	      0.42353674	      1.88654361	     -2.12601017	    -21.92248683	     11.70416711	      0.20427625	     22.83756435	     -8.05470307	      0.00000000	     16.22425817	     -0.92212838	      6.86302993	     18.37268609	      0.32066386	     20.22714295	     -8.02042042	      0.00000000	     -0.09075764	     -0.06688474	      1.75653688	     -0.16854601	     -0.08895671	      1.86632043	     -0.14910572	     -0.16262356	      1.86632043	     -0.10372690	     -0.16262356	      1.53696977	     -0.08427754	     -0.13639137	      1.42718621	     -0.05185891	     -0.10360447	      1.31740266	     -0.64827273	     -0.75661359	      9.76933116	      0.00000000	      0.00000000	      7.94658210	     -8.28941932	     10.23799467	     74.13168670	     -1.95414531	     32.21393898	     72.73291501	     65.39793842	     -6.85610631	      2.26754633	     21.05002062	     -0.13177365	     -2.21612643	    141.53650611	     88.68855823	    -16.61337714	     -2.45585434
      2.96610169	     -5.01617769	      0.05931950	     63.38423463	      0.30672998	      0.97056859	      0.42031181	      1.80236293	     -2.20873484	    -21.90449482	     11.99227087	      0.20930461	     22.35628071	     -7.91938212	      0.00000000	     16.02694106	     -0.89793521	      7.24641358	     18.13460855	      0.31650863	     20.19144736	     -7.74889142	      0.00000000	     -0.06088668	     -0.06739507	      1.87515904	     -0.11307266	     -0.08963544	      1.99235648	     -0.10003073	     -0.16386436	      1.99235648	     -0.06958739	     -0.16386436	      1.64076416	     -0.05653937	     -0.13743202	      1.52356672	     -0.03479065	     -0.10439496	      1.40636928	     -0.43490749	     -0.76238646	     10.42907206	      0.00000000	      0.00000000	      8.58383288	     -8.26075028	     10.12526146	     74.32149254	     -2.19355075	     32.12473379	     70.94741124	     65.25121373	     -7.11265324	      2.54888189	     20.11004071	     -0.20649717	     -1.83277298	    141.71913012	     88.79299364	    -16.53508037	     -2.32588385
      2.98305085	     -4.64167402	      0.07473634	     64.04949016	      0.30476274	      0.97143315	      0.41784069	      1.63372779	     -2.29612015	    -21.88249979	     12.67059737	      0.22114364	     22.11150018	     -7.38579830	      0.00000000	     15.43466060	     -1.01609023	      7.80227994	     17.41378575	      0.30392790	     20.18897731	     -7.28304296	      0.00000000	     -0.09672137	     -0.03985920	      1.82739352	     -0.17962125	     -0.05301274	      1.94160561	     -0.15890354	     -0.09691366	      1.94160561	     -0.11054285	     -0.09691366	      1.59896933	     -0.08981546	     -0.08128088	      1.48475723	     -0.05526659	     -0.06174190	      1.37054514	     -0.69087106	     -0.45089526	     10.16341452	      0.00000000	      0.00000000	     10.33788760	     -9.30627948	     10.82385983	     74.88928470	     -2.68841399	     33.12202559	     70.27433955	     65.00108824	     -6.74671576	      1.24318068	     19.55813760	     -0.60001970	     -2.05511116	    142.81971390	     88.96300884	    -16.18259849	     -1.11192297
      3.00000000	     -4.52769832	      0.09557285	     65.04078756	      0.30297831	      0.97197053	      0.41533908	      1.30750300	     -2.56886252	    -21.86546813	     12.93986813	      0.22584330	     21.98920896	     -6.53267536	      0.00000000	     15.19201123	     -0.85512762	      8.53604239	     17.11305275	      0.29867912	     20.05690548	     -6.76476116	      0.00000000	     -0.10418366	     -0.07374927	      1.82540710	     -0.19347947	     -0.09808653	      1.93949505	     -0.17116333	     -0.17931398	      1.93949505	     -0.11907150	     -0.17931398	      1.59723121	     -0.09674495	     -0.15038952	      1.48314327	     -0.05953054	     -0.11423762	      1.36905533	     -0.74417346	     -0.83426653	     10.15236668	      0.00000000	      0.00000000	     11.71978009	     -8.84579442	     10.92392635	     74.20985281	     -4.47566247	     32.59716931	     72.13326079	     69.41438483	     -6.01569889	     -1.32763128	     19.81954664	     -1.09502929	     -1.68870596	    143.44231008	     89.11498080	    -13.71625271	     -0.63456986
      3.01694915	     -4.60324381	      0.25399532	     65.65782093	      0.30173352	      0.97232061	      0.41325432	      0.96799105	     -3.07095234	    -20.99480424	     13.21166045	      0.23058697	     21.91484357	     -6.01395252	      0.00000000	     14.84242406	     -0.57817308	      8.77985358	     16.76322182	      0.29257341	     19.88087222	     -6.24593325	      0.00000000	     -0.13401974	     -0.14084050	      1.94770092	     -0.24888805	     -0.18731786	      2.06943222	     -0.22018103	     -0.34243959	      2.06943222	     -0.15317116	     -0.34243959	      1.70423830	     -0.12445073	     -0.28720194	      1.58250700	     -0.07657888	     -0.21816193	      1.46077569	     -0.95728958	     -1.59321587	     10.83252819	      0.00000000	      0.00000000	     13.24719327	     -8.49862301	     10.70361429	     72.52882158	     -6.63289216	     29.29533074	     76.38138771	     80.42565116	     -2.81663340	     -0.81642491	     20.89787908	     -1.76401841	     -0.79131832	    143.80697063	     89.24930916	    -11.30881240	     -0.66770047
      3.03389831	     -4.64472319	      0.48410122	     66.54572523	      0.30018883	      0.97240605	      0.41145681	      0.44432933	     -3.52333155	    -19.93188237	     13.30709766	      0.23225267	     21.93886671	     -5.74601025	      0.00000000	     14.53700929	     -0.24267259	      9.28793987	     16.59392489	      0.28961863	     19.89683840	     -5.67429471	      0.00000000	     -0.18598360	     -0.22393511	      2.09244013	     -0.34539014	     -0.29783369	      2.22321764	     -0.30555246	     -0.54447582	      2.22321764	     -0.21256066	     -0.54447582	      1.83088511	     -0.17270437	     -0.45664847	      1.70010761	     -0.10627103	     -0.34687548	      1.56933010	     -1.32846226	     -2.53319872	     11.63752427	      0.00000000	      0.00000000	     14.44780358	     -7.40271024	      9.60836000	     70.67946408	     -9.86130522	     26.75718189	     81.97424405	     84.24469784	     -1.23731026	     -1.84675257	     22.88866670	     -2.55713122	      1.08717482	    143.62234386	     89.35229642	     -9.55306318	     -1.55404723
